<svg xmlns="http://www.w3.org/2000/svg" viewBox="0 0 64 64" role="img" aria-labelledby="title desc">
  <title id="title">Metro train icon</title>
  <desc id="desc">A simplified front-facing metro train inside a rounded square.</desc>
  <rect width="64" height="64" rx="14" fill="#172033"/>
  <path d="M18 17c0-4.4 3.6-8 8-8h12c4.4 0 8 3.6 8 8v24c0 4.4-3.6 8-8 8H26c-4.4 0-8-3.6-8-8V17Z" fill="#ffffff"/>
  <rect x="23" y="15" width="18" height="12" rx="3" fill="#2b59c3"/>
  <circle cx="25" cy="38" r="3" fill="#172033"/>
  <circle cx="39" cy="38" r="3" fill="#172033"/>
  <path d="M22 49 17 56h6l4-7h10l4 7h6l-5-7H22Z" fill="#ffffff"/>
  <path d="M24 31h16" stroke="#172033" stroke-width="3" stroke-linecap="round"/>
</svg>
